<mxfile host="app.diagrams.net" modified="2023-07-31T11:29:48.448Z" agent="Mozilla/5.0 (Macintosh; Intel Mac OS X 10_15_7) AppleWebKit/537.36 (KHTML, like Gecko) Chrome/114.0.0.0 Safari/537.36 OPR/100.0.0.0" etag="XoQpDxJHteTuFmee335M" version="21.6.6" type="github">
  <diagram name="Page-1" id="__z_0_36OmxsE3gAjYu-">
    <mxGraphModel dx="913" dy="627" grid="1" gridSize="10" guides="1" tooltips="1" connect="1" arrows="1" fold="1" page="1" pageScale="1" pageWidth="827" pageHeight="1169" math="0" shadow="0">
      <root>
        <mxCell id="0" />
        <mxCell id="1" parent="0" />
      </root>
    </mxGraphModel>
  </diagram>
</mxfile>
